<svg xmlns="http://www.w3.org/2000/svg" viewBox="0 0 128 128">
  <defs>
    <linearGradient id="g" x1="0" y1="0" x2="1" y2="1">
      <stop offset="0" stop-color="#ff6a4a"/>
      <stop offset="1" stop-color="#e32222"/>
    </linearGradient>
  </defs>
  <rect width="128" height="128" rx="24" fill="#0b0b0f"/>
  <path d="M64 20c7 0 12 4 14 9-6 1-11 4-14 9-3-5-8-8-14-9 2-5 7-9 14-9z" fill="#5dbb63"/>
  <path d="M34 60c0-16 13-30 30-30s30 14 30 30c0 18-14 34-30 34S34 78 34 60z" fill="url(#g)"/>
  <circle cx="86" cy="78" r="14" fill="#fff"/>
  <circle cx="86" cy="78" r="12" fill="#f1c0c0"/>
  <text x="64" y="118" text-anchor="middle" font-family="Inter, Arial, sans-serif" font-size="16" fill="#ffebeb" font-weight="700">Y</text>
</svg>
